<svg width="24" height="24" viewBox="0 0 24 24" fill="none" xmlns="http://www.w3.org/2000/svg">
<path fill-rule="evenodd" clip-rule="evenodd" d="M0 22L0.0111103 24H11V0H0.0111103L0 2C4.97111 2 9 6.02889 9 11V13C9 17.9711 4.97111 22 0 22Z" fill="#FF5A19"/>
<path fill-rule="evenodd" clip-rule="evenodd" d="M0 12C0 15.0856 1.16444 17.8989 3.07778 20.0256C3.38333 19.87 3.67889 19.6978 3.96222 19.5078C2.12445 17.5422 1 14.9022 1 12C1 9.09668 2.12444 6.45668 3.96333 4.49112C3.67889 4.30223 3.38333 4.13001 3.07778 3.97446C1.16444 6.10112 0 8.91446 0 12Z" fill="#FF5A19"/>
<path fill-rule="evenodd" clip-rule="evenodd" d="M24 22L23.9889 24H13V0H23.9889L24 2C19.0289 2 15 6.02889 15 11V13C15 17.9711 19.0289 22 24 22Z" fill="#FF5A19"/>
<path fill-rule="evenodd" clip-rule="evenodd" d="M24 12C24 15.0856 22.8356 17.8989 20.9222 20.0256C20.6167 19.87 20.3211 19.6978 20.0378 19.5078C21.8756 17.5422 23 14.9022 23 12C23 9.09779 21.8756 6.45668 20.0367 4.49112C20.3211 4.30223 20.6167 4.13001 20.9222 3.97446C22.8356 6.10112 24 8.91446 24 12Z" fill="#FF5A19"/>
</svg>
